<mxfile host="65bd71144e">
    <diagram id="LSlM9-FirK7-BIuNLM0d" name="Automat">
        <mxGraphModel dx="860" dy="790" grid="1" gridSize="10" guides="1" tooltips="1" connect="1" arrows="1" fold="1" page="1" pageScale="1" pageWidth="850" pageHeight="1100" math="0" shadow="0">
            <root>
                <mxCell id="0"/>
                <mxCell id="1" parent="0"/>
                <mxCell id="13" value="&lt;font style=&quot;font-size: 20px&quot;&gt;&amp;lt;S&amp;gt;&lt;/font&gt;" style="edgeStyle=none;html=1;exitX=1;exitY=0.25;exitDx=0;exitDy=0;entryX=0;entryY=0.5;entryDx=0;entryDy=0;" edge="1" parent="1" source="2" target="8">
                    <mxGeometry relative="1" as="geometry"/>
                </mxCell>
                <mxCell id="14" value="&lt;font style=&quot;font-size: 20px&quot;&gt;a&lt;/font&gt;" style="edgeStyle=none;html=1;exitX=0.5;exitY=1;exitDx=0;exitDy=0;entryX=0.5;entryY=0;entryDx=0;entryDy=0;" edge="1" parent="1" source="2" target="4">
                    <mxGeometry relative="1" as="geometry"/>
                </mxCell>
                <mxCell id="2" value="&lt;pre&gt;&lt;font&gt;&lt;div&gt;&lt;font&gt;&lt;pre&gt;&lt;font&gt;&lt;div&gt;&lt;span style=&quot;font-size: 20px&quot;&gt;&amp;lt;S'&amp;gt; → • &amp;lt;S&amp;gt; ─┤, {}&lt;br&gt;&amp;lt;S&amp;gt; → • a &amp;lt;X&amp;gt;, {&lt;/span&gt;&lt;span style=&quot;font-size: 20px&quot;&gt;─┤&lt;/span&gt;&lt;span style=&quot;font-size: 20px ; font-family: &amp;#34;helvetica&amp;#34;&quot;&gt;}&lt;/span&gt;&lt;/div&gt;&lt;/font&gt;&lt;/pre&gt;&lt;/font&gt;&lt;/div&gt;&lt;/font&gt;&lt;/pre&gt;" style="rounded=0;whiteSpace=wrap;html=1;align=left;" parent="1" vertex="1">
                    <mxGeometry x="120" y="80" width="280" height="80" as="geometry"/>
                </mxCell>
                <mxCell id="3" value="&lt;pre&gt;&lt;font style=&quot;font-size: 20px&quot;&gt;∇&lt;/font&gt;&lt;/pre&gt;" style="rounded=0;whiteSpace=wrap;html=1;" parent="1" vertex="1">
                    <mxGeometry x="120" y="40" width="80" height="40" as="geometry"/>
                </mxCell>
                <mxCell id="17" value="&amp;lt;X&amp;gt;" style="edgeStyle=none;html=1;entryX=0.5;entryY=0;entryDx=0;entryDy=0;fontSize=20;" edge="1" parent="1" source="4" target="15">
                    <mxGeometry relative="1" as="geometry"/>
                </mxCell>
                <mxCell id="4" value="&lt;pre&gt;&lt;font&gt;&lt;font&gt;&lt;pre&gt;&lt;span style=&quot;font-size: 20px&quot;&gt;&amp;lt;S&amp;gt; → a • &amp;lt;X&amp;gt;, {─┤}&lt;br&gt;&amp;lt;X&amp;gt; → • &amp;lt;X&amp;gt; b &amp;lt;X&amp;gt; c, {─┤, b}&lt;br&gt;&amp;lt;X&amp;gt; → •, {─┤}&lt;/span&gt;&lt;/pre&gt;&lt;/font&gt;&lt;/font&gt;&lt;/pre&gt;" style="rounded=0;whiteSpace=wrap;html=1;align=left;" vertex="1" parent="1">
                    <mxGeometry x="80" y="240" width="360" height="80" as="geometry"/>
                </mxCell>
                <mxCell id="5" value="&lt;pre&gt;&lt;font style=&quot;font-size: 20px&quot;&gt;a&lt;sub&gt;1&lt;/sub&gt;&lt;/font&gt;&lt;/pre&gt;" style="rounded=0;whiteSpace=wrap;html=1;" vertex="1" parent="1">
                    <mxGeometry x="80" y="200" width="80" height="40" as="geometry"/>
                </mxCell>
                <mxCell id="8" value="&lt;pre&gt;&lt;font&gt;&lt;div&gt;&lt;font&gt;&lt;pre&gt;&lt;font&gt;&lt;div&gt;&lt;span style=&quot;font-size: 20px&quot;&gt;&amp;lt;S'&amp;gt; → &amp;lt;S&amp;gt; • ─┤, {}&lt;br&gt;&lt;/span&gt;&lt;/div&gt;&lt;/font&gt;&lt;/pre&gt;&lt;/font&gt;&lt;/div&gt;&lt;/font&gt;&lt;/pre&gt;" style="rounded=0;whiteSpace=wrap;html=1;align=left;" vertex="1" parent="1">
                    <mxGeometry x="480" y="80" width="240" height="40" as="geometry"/>
                </mxCell>
                <mxCell id="9" value="&lt;pre&gt;&lt;font style=&quot;font-size: 20px&quot;&gt;&amp;lt;S&amp;gt;&lt;sub&gt;0&lt;/sub&gt;&lt;/font&gt;&lt;/pre&gt;" style="rounded=0;whiteSpace=wrap;html=1;" vertex="1" parent="1">
                    <mxGeometry x="480" y="40" width="80" height="40" as="geometry"/>
                </mxCell>
                <mxCell id="10" value="&lt;pre&gt;&lt;font&gt;&lt;div&gt;&lt;font&gt;&lt;pre&gt;&lt;font&gt;&lt;div&gt;&lt;span style=&quot;font-size: 20px&quot;&gt;&amp;lt;S'&amp;gt; → &amp;lt;S&amp;gt; ─┤ &lt;/span&gt;&lt;span style=&quot;font-size: 20px&quot;&gt;•, {}&lt;/span&gt;&lt;/div&gt;&lt;/font&gt;&lt;/pre&gt;&lt;/font&gt;&lt;/div&gt;&lt;/font&gt;&lt;/pre&gt;" style="rounded=0;whiteSpace=wrap;html=1;align=left;" vertex="1" parent="1">
                    <mxGeometry x="480" y="200" width="240" height="40" as="geometry"/>
                </mxCell>
                <mxCell id="11" value="&lt;pre&gt;&lt;span style=&quot;font-family: monospace ; font-size: 20px ; text-align: left&quot;&gt;─┤&lt;/span&gt;&lt;span style=&quot;vertical-align: sub ; font-size: 20px&quot;&gt;0&lt;/span&gt;&lt;/pre&gt;" style="rounded=0;whiteSpace=wrap;html=1;" vertex="1" parent="1">
                    <mxGeometry x="480" y="160" width="80" height="40" as="geometry"/>
                </mxCell>
                <mxCell id="12" value="─┤" style="endArrow=classic;html=1;fontSize=20;exitX=0.5;exitY=1;exitDx=0;exitDy=0;entryX=0.5;entryY=0;entryDx=0;entryDy=0;" edge="1" parent="1" source="8" target="10">
                    <mxGeometry y="10" width="50" height="50" relative="1" as="geometry">
                        <mxPoint x="720" y="190" as="sourcePoint"/>
                        <mxPoint x="770" y="140" as="targetPoint"/>
                        <mxPoint as="offset"/>
                    </mxGeometry>
                </mxCell>
                <mxCell id="22" value="b" style="edgeStyle=none;html=1;exitX=1;exitY=0.5;exitDx=0;exitDy=0;entryX=0;entryY=0.5;entryDx=0;entryDy=0;fontSize=20;" edge="1" parent="1" source="15" target="20">
                    <mxGeometry relative="1" as="geometry"/>
                </mxCell>
                <mxCell id="15" value="&lt;pre&gt;&lt;font&gt;&lt;font&gt;&lt;pre&gt;&lt;font&gt;&lt;span style=&quot;font-size: 20px&quot;&gt;&amp;lt;S&amp;gt; → a &amp;lt;X&amp;gt; •, {─┤}&lt;br&gt;&amp;lt;X&amp;gt; → &amp;lt;X&amp;gt; • b &amp;lt;X&amp;gt; c, {─┤, b}&lt;br&gt;&lt;/span&gt;&lt;/font&gt;&lt;/pre&gt;&lt;/font&gt;&lt;/font&gt;&lt;/pre&gt;" style="rounded=0;whiteSpace=wrap;html=1;align=left;" vertex="1" parent="1">
                    <mxGeometry x="80" y="400" width="360" height="80" as="geometry"/>
                </mxCell>
                <mxCell id="16" value="&lt;pre&gt;&lt;font style=&quot;font-size: 20px&quot;&gt;&amp;lt;X&amp;gt;&lt;sub&gt;x&lt;/sub&gt;&lt;/font&gt;&lt;/pre&gt;" style="rounded=0;whiteSpace=wrap;html=1;" vertex="1" parent="1">
                    <mxGeometry x="80" y="360" width="80" height="40" as="geometry"/>
                </mxCell>
                <mxCell id="33" value="&amp;lt;X&amp;gt;" style="edgeStyle=none;html=1;fontSize=20;" edge="1" parent="1" source="20" target="23">
                    <mxGeometry relative="1" as="geometry"/>
                </mxCell>
                <mxCell id="20" value="&lt;pre&gt;&lt;font&gt;&lt;font&gt;&lt;pre&gt;&lt;span style=&quot;font-size: 20px&quot;&gt;&amp;lt;X&amp;gt; → &amp;lt;X&amp;gt; b • &amp;lt;X&amp;gt; c, {─┤, b, c}&lt;br&gt;&amp;lt;X&amp;gt; → • &amp;lt;X&amp;gt; b &amp;lt;X&amp;gt; c, {b, c}&lt;br&gt;&amp;lt;X&amp;gt; → •, {b, c}&lt;/span&gt;&lt;br&gt;&lt;/pre&gt;&lt;/font&gt;&lt;/font&gt;&lt;/pre&gt;" style="rounded=0;whiteSpace=wrap;html=1;align=left;" vertex="1" parent="1">
                    <mxGeometry x="560" y="400" width="400" height="80" as="geometry"/>
                </mxCell>
                <mxCell id="21" value="&lt;pre&gt;&lt;font style=&quot;font-size: 20px&quot;&gt;b&lt;sub&gt;2&lt;/sub&gt;&lt;/font&gt;&lt;/pre&gt;" style="rounded=0;whiteSpace=wrap;html=1;" vertex="1" parent="1">
                    <mxGeometry x="560" y="360" width="80" height="40" as="geometry"/>
                </mxCell>
                <mxCell id="26" value="b" style="edgeStyle=none;html=1;exitX=0.75;exitY=0;exitDx=0;exitDy=0;entryX=0.75;entryY=1;entryDx=0;entryDy=0;fontSize=20;" edge="1" parent="1" source="23" target="20">
                    <mxGeometry relative="1" as="geometry"/>
                </mxCell>
                <mxCell id="29" value="c" style="edgeStyle=none;html=1;exitX=0;exitY=0.75;exitDx=0;exitDy=0;entryX=1;entryY=0.5;entryDx=0;entryDy=0;fontSize=20;" edge="1" parent="1" source="23" target="27">
                    <mxGeometry relative="1" as="geometry"/>
                </mxCell>
                <mxCell id="23" value="&lt;pre&gt;&lt;font&gt;&lt;font&gt;&lt;pre&gt;&lt;span style=&quot;font-size: 20px&quot;&gt;&amp;lt;X&amp;gt; → &amp;lt;X&amp;gt; b &amp;lt;X&amp;gt; • c, {─┤, b, c}&lt;br&gt;&amp;lt;X&amp;gt; → &amp;lt;X&amp;gt; • b &amp;lt;X&amp;gt; c, {b, c}&lt;/span&gt;&lt;br&gt;&lt;/pre&gt;&lt;/font&gt;&lt;/font&gt;&lt;/pre&gt;" style="rounded=0;whiteSpace=wrap;html=1;align=left;" vertex="1" parent="1">
                    <mxGeometry x="560" y="560" width="400" height="80" as="geometry"/>
                </mxCell>
                <mxCell id="24" value="&lt;pre&gt;&lt;font style=&quot;font-size: 20px&quot;&gt;&amp;lt;X&amp;gt;&lt;sub&gt;x2&lt;/sub&gt;&lt;/font&gt;&lt;/pre&gt;" style="rounded=0;whiteSpace=wrap;html=1;" vertex="1" parent="1">
                    <mxGeometry x="560" y="520" width="80" height="40" as="geometry"/>
                </mxCell>
                <mxCell id="27" value="&lt;pre&gt;&lt;font&gt;&lt;font&gt;&lt;pre&gt;&lt;font&gt;&lt;pre&gt;&lt;span style=&quot;font-size: 20px&quot;&gt;&amp;lt;X&amp;gt; → &amp;lt;X&amp;gt; b &amp;lt;X&amp;gt; c •, {─┤, b, c}&lt;/span&gt;&lt;br&gt;&lt;/pre&gt;&lt;/font&gt;&lt;/pre&gt;&lt;/font&gt;&lt;/font&gt;&lt;/pre&gt;" style="rounded=0;whiteSpace=wrap;html=1;align=left;" vertex="1" parent="1">
                    <mxGeometry x="80" y="600" width="400" height="40" as="geometry"/>
                </mxCell>
                <mxCell id="28" value="&lt;pre&gt;&lt;span style=&quot;font-family: monospace ; font-size: 20px ; text-align: left&quot;&gt;c&lt;/span&gt;&lt;span style=&quot;vertical-align: sub ; font-size: 20px&quot;&gt;2&lt;/span&gt;&lt;/pre&gt;" style="rounded=0;whiteSpace=wrap;html=1;" vertex="1" parent="1">
                    <mxGeometry x="80" y="560" width="80" height="40" as="geometry"/>
                </mxCell>
            </root>
        </mxGraphModel>
    </diagram>
</mxfile>
